<mxfile host="65bd71144e" modified="2020-12-18T07:30:32.734Z" agent="5.0 (Macintosh; Intel Mac OS X 10_15_7) AppleWebKit/537.36 (KHTML, like Gecko) Code/1.52.1 Chrome/83.0.4103.122 Electron/9.3.5 Safari/537.36" version="13.10.0" etag="EhRbqBoKLRMEi656UdsU" type="embed">
    <diagram id="kdOnpBa256USASIg0f_R" name="Page-1">
        <mxGraphModel dx="898" dy="1838" grid="1" gridSize="10" guides="1" tooltips="1" connect="1" arrows="1" fold="1" page="1" pageScale="1" pageWidth="827" pageHeight="1169" background="#F1FAEE" math="0" shadow="0">
            <root>
                <mxCell id="0"/>
                <mxCell id="1" parent="0"/>
                <mxCell id="105" value="" style="rounded=0;whiteSpace=wrap;html=1;sketch=0;strokeColor=#666666;fillColor=#f5f5f5;fontColor=#333333;align=center;" vertex="1" parent="1">
                    <mxGeometry x="140" y="-20" width="890" height="290" as="geometry"/>
                </mxCell>
                <object label="Entry&lt;K,V&gt;" next="" id="19">
                    <mxCell style="swimlane;fontStyle=0;childLayout=stackLayout;horizontal=1;startSize=26;fillColor=#A8DADC;horizontalStack=0;resizeParent=1;resizeParentMax=0;resizeLast=0;collapsible=1;marginBottom=0;strokeColor=#457B9D;fontColor=#1D3557;flipH=1;" vertex="1" parent="1">
                        <mxGeometry x="260" y="30" width="170" height="182" as="geometry"/>
                    </mxCell>
                </object>
                <mxCell id="20" value="+ hash: int" style="text;strokeColor=none;fillColor=none;align=center;verticalAlign=top;spacingLeft=4;spacingRight=4;overflow=hidden;rotatable=0;points=[[0,0.5],[1,0.5]];portConstraint=eastwest;fontColor=#1D3557;" vertex="1" parent="19">
                    <mxGeometry y="26" width="170" height="26" as="geometry"/>
                </mxCell>
                <mxCell id="21" value="+ key: K" style="text;strokeColor=none;fillColor=none;align=center;verticalAlign=top;spacingLeft=4;spacingRight=4;overflow=hidden;rotatable=0;points=[[0,0.5],[1,0.5]];portConstraint=eastwest;fontColor=#1D3557;" vertex="1" parent="19">
                    <mxGeometry y="52" width="170" height="26" as="geometry"/>
                </mxCell>
                <object label="+ value: V" dafasdf="asdfasdf" id="22">
                    <mxCell style="text;strokeColor=none;fillColor=none;align=center;verticalAlign=top;spacingLeft=4;spacingRight=4;overflow=hidden;rotatable=0;points=[[0,0.5],[1,0.5]];portConstraint=eastwest;fontColor=#1D3557;" vertex="1" parent="19">
                        <mxGeometry y="78" width="170" height="26" as="geometry"/>
                    </mxCell>
                </object>
                <mxCell id="36" value="&lt;span style=&quot;text-align: left&quot;&gt;+ before: Entry&amp;lt;K,V&amp;gt;&lt;/span&gt;" style="shape=process;whiteSpace=wrap;html=1;backgroundOutline=1;rounded=0;sketch=0;strokeColor=#82b366;fillColor=#d5e8d4;" vertex="1" parent="19">
                    <mxGeometry y="104" width="170" height="26" as="geometry"/>
                </mxCell>
                <mxCell id="37" value="&lt;span style=&quot;text-align: left&quot;&gt;+ after: Entry&amp;lt;K,V&amp;gt;&lt;/span&gt;" style="shape=process;whiteSpace=wrap;html=1;backgroundOutline=1;rounded=0;sketch=0;strokeColor=#82b366;fillColor=#d5e8d4;" vertex="1" parent="19">
                    <mxGeometry y="130" width="170" height="26" as="geometry"/>
                </mxCell>
                <mxCell id="38" value="&lt;span style=&quot;text-align: left&quot;&gt;+ next: Entry&amp;lt;K,V&amp;gt;&lt;/span&gt;" style="shape=process;whiteSpace=wrap;html=1;backgroundOutline=1;rounded=0;sketch=0;strokeColor=#457B9D;fillColor=#A8DADC;fontColor=#1D3557;" vertex="1" parent="19">
                    <mxGeometry y="156" width="170" height="26" as="geometry"/>
                </mxCell>
                <mxCell id="39" value="" style="shape=table;html=1;whiteSpace=wrap;startSize=0;container=1;collapsible=0;childLayout=tableLayout;rounded=0;sketch=0;strokeColor=#6c8ebf;align=center;fillColor=#FFB366;direction=west;flipV=0;" vertex="1" parent="1">
                    <mxGeometry x="20" y="180" width="60" height="480" as="geometry"/>
                </mxCell>
                <mxCell id="40" value="" style="shape=partialRectangle;html=1;whiteSpace=wrap;collapsible=0;dropTarget=0;pointerEvents=0;fillColor=none;top=0;left=0;bottom=0;right=0;points=[[0,0.5],[1,0.5]];portConstraint=eastwest;" vertex="1" parent="39">
                    <mxGeometry width="60" height="40" as="geometry"/>
                </mxCell>
                <mxCell id="41" value="" style="shape=partialRectangle;html=1;whiteSpace=wrap;connectable=0;fillColor=none;top=0;left=0;bottom=0;right=0;overflow=hidden;" vertex="1" parent="40">
                    <mxGeometry width="60" height="40" as="geometry"/>
                </mxCell>
                <mxCell id="44" value="" style="shape=partialRectangle;html=1;whiteSpace=wrap;collapsible=0;dropTarget=0;pointerEvents=0;fillColor=none;top=0;left=0;bottom=0;right=0;points=[[0,0.5],[1,0.5]];portConstraint=eastwest;" vertex="1" parent="39">
                    <mxGeometry y="40" width="60" height="40" as="geometry"/>
                </mxCell>
                <mxCell id="45" value="" style="shape=partialRectangle;html=1;whiteSpace=wrap;connectable=0;fillColor=none;top=0;left=0;bottom=0;right=0;overflow=hidden;" vertex="1" parent="44">
                    <mxGeometry width="60" height="40" as="geometry"/>
                </mxCell>
                <mxCell id="48" value="" style="shape=partialRectangle;html=1;whiteSpace=wrap;collapsible=0;dropTarget=0;pointerEvents=0;fillColor=none;top=0;left=0;bottom=0;right=0;points=[[0,0.5],[1,0.5]];portConstraint=eastwest;" vertex="1" parent="39">
                    <mxGeometry y="80" width="60" height="40" as="geometry"/>
                </mxCell>
                <mxCell id="49" value="" style="shape=partialRectangle;html=1;whiteSpace=wrap;connectable=0;fillColor=none;top=0;left=0;bottom=0;right=0;overflow=hidden;" vertex="1" parent="48">
                    <mxGeometry width="60" height="40" as="geometry"/>
                </mxCell>
                <mxCell id="52" style="shape=partialRectangle;html=1;whiteSpace=wrap;collapsible=0;dropTarget=0;pointerEvents=0;fillColor=none;top=0;left=0;bottom=0;right=0;points=[[0,0.5],[1,0.5]];portConstraint=eastwest;" vertex="1" parent="39">
                    <mxGeometry y="120" width="60" height="40" as="geometry"/>
                </mxCell>
                <mxCell id="53" style="shape=partialRectangle;html=1;whiteSpace=wrap;connectable=0;fillColor=none;top=0;left=0;bottom=0;right=0;overflow=hidden;" vertex="1" parent="52">
                    <mxGeometry width="60" height="40" as="geometry"/>
                </mxCell>
                <mxCell id="54" style="shape=partialRectangle;html=1;whiteSpace=wrap;collapsible=0;dropTarget=0;pointerEvents=0;fillColor=none;top=0;left=0;bottom=0;right=0;points=[[0,0.5],[1,0.5]];portConstraint=eastwest;" vertex="1" parent="39">
                    <mxGeometry y="160" width="60" height="40" as="geometry"/>
                </mxCell>
                <mxCell id="55" style="shape=partialRectangle;html=1;whiteSpace=wrap;connectable=0;fillColor=none;top=0;left=0;bottom=0;right=0;overflow=hidden;" vertex="1" parent="54">
                    <mxGeometry width="60" height="40" as="geometry"/>
                </mxCell>
                <mxCell id="56" style="shape=partialRectangle;html=1;whiteSpace=wrap;collapsible=0;dropTarget=0;pointerEvents=0;fillColor=none;top=0;left=0;bottom=0;right=0;points=[[0,0.5],[1,0.5]];portConstraint=eastwest;" vertex="1" parent="39">
                    <mxGeometry y="200" width="60" height="40" as="geometry"/>
                </mxCell>
                <mxCell id="57" style="shape=partialRectangle;html=1;whiteSpace=wrap;connectable=0;fillColor=none;top=0;left=0;bottom=0;right=0;overflow=hidden;" vertex="1" parent="56">
                    <mxGeometry width="60" height="40" as="geometry"/>
                </mxCell>
                <mxCell id="58" style="shape=partialRectangle;html=1;whiteSpace=wrap;collapsible=0;dropTarget=0;pointerEvents=0;fillColor=none;top=0;left=0;bottom=0;right=0;points=[[0,0.5],[1,0.5]];portConstraint=eastwest;" vertex="1" parent="39">
                    <mxGeometry y="240" width="60" height="40" as="geometry"/>
                </mxCell>
                <mxCell id="59" style="shape=partialRectangle;html=1;whiteSpace=wrap;connectable=0;fillColor=none;top=0;left=0;bottom=0;right=0;overflow=hidden;" vertex="1" parent="58">
                    <mxGeometry width="60" height="40" as="geometry"/>
                </mxCell>
                <mxCell id="60" style="shape=partialRectangle;html=1;whiteSpace=wrap;collapsible=0;dropTarget=0;pointerEvents=0;fillColor=none;top=0;left=0;bottom=0;right=0;points=[[0,0.5],[1,0.5]];portConstraint=eastwest;" vertex="1" parent="39">
                    <mxGeometry y="280" width="60" height="40" as="geometry"/>
                </mxCell>
                <mxCell id="61" style="shape=partialRectangle;html=1;whiteSpace=wrap;connectable=0;fillColor=none;top=0;left=0;bottom=0;right=0;overflow=hidden;" vertex="1" parent="60">
                    <mxGeometry width="60" height="40" as="geometry"/>
                </mxCell>
                <mxCell id="62" style="shape=partialRectangle;html=1;whiteSpace=wrap;collapsible=0;dropTarget=0;pointerEvents=0;fillColor=none;top=0;left=0;bottom=0;right=0;points=[[0,0.5],[1,0.5]];portConstraint=eastwest;" vertex="1" parent="39">
                    <mxGeometry y="320" width="60" height="40" as="geometry"/>
                </mxCell>
                <mxCell id="63" style="shape=partialRectangle;html=1;whiteSpace=wrap;connectable=0;fillColor=none;top=0;left=0;bottom=0;right=0;overflow=hidden;" vertex="1" parent="62">
                    <mxGeometry width="60" height="40" as="geometry"/>
                </mxCell>
                <mxCell id="64" style="shape=partialRectangle;html=1;whiteSpace=wrap;collapsible=0;dropTarget=0;pointerEvents=0;fillColor=none;top=0;left=0;bottom=0;right=0;points=[[0,0.5],[1,0.5]];portConstraint=eastwest;" vertex="1" parent="39">
                    <mxGeometry y="360" width="60" height="40" as="geometry"/>
                </mxCell>
                <mxCell id="65" style="shape=partialRectangle;html=1;whiteSpace=wrap;connectable=0;fillColor=none;top=0;left=0;bottom=0;right=0;overflow=hidden;" vertex="1" parent="64">
                    <mxGeometry width="60" height="40" as="geometry"/>
                </mxCell>
                <mxCell id="66" style="shape=partialRectangle;html=1;whiteSpace=wrap;collapsible=0;dropTarget=0;pointerEvents=0;fillColor=none;top=0;left=0;bottom=0;right=0;points=[[0,0.5],[1,0.5]];portConstraint=eastwest;" vertex="1" parent="39">
                    <mxGeometry y="400" width="60" height="40" as="geometry"/>
                </mxCell>
                <mxCell id="67" style="shape=partialRectangle;html=1;whiteSpace=wrap;connectable=0;fillColor=none;top=0;left=0;bottom=0;right=0;overflow=hidden;" vertex="1" parent="66">
                    <mxGeometry width="60" height="40" as="geometry"/>
                </mxCell>
                <mxCell id="68" style="shape=partialRectangle;html=1;whiteSpace=wrap;collapsible=0;dropTarget=0;pointerEvents=0;fillColor=none;top=0;left=0;bottom=0;right=0;points=[[0,0.5],[1,0.5]];portConstraint=eastwest;" vertex="1" parent="39">
                    <mxGeometry y="440" width="60" height="40" as="geometry"/>
                </mxCell>
                <mxCell id="69" style="shape=partialRectangle;html=1;whiteSpace=wrap;connectable=0;fillColor=none;top=0;left=0;bottom=0;right=0;overflow=hidden;" vertex="1" parent="68">
                    <mxGeometry width="60" height="40" as="geometry"/>
                </mxCell>
                <mxCell id="70" style="edgeStyle=orthogonalEdgeStyle;curved=0;rounded=1;sketch=0;orthogonalLoop=1;jettySize=auto;html=1;entryX=0;entryY=0.397;entryDx=0;entryDy=0;strokeColor=#d79b00;fillColor=#ffe6cc;fontColor=#1D3557;entryPerimeter=0;" edge="1" parent="1" source="44" target="105">
                    <mxGeometry relative="1" as="geometry"/>
                </mxCell>
                <object label="Entry&lt;K,V&gt;" next="" id="71">
                    <mxCell style="swimlane;fontStyle=0;childLayout=stackLayout;horizontal=1;startSize=26;fillColor=#A8DADC;horizontalStack=0;resizeParent=1;resizeParentMax=0;resizeLast=0;collapsible=1;marginBottom=0;strokeColor=#457B9D;fontColor=#1D3557;flipH=1;" vertex="1" parent="1">
                        <mxGeometry x="550" y="30" width="170" height="182" as="geometry"/>
                    </mxCell>
                </object>
                <mxCell id="72" value="+ hash: int" style="text;strokeColor=none;fillColor=none;align=center;verticalAlign=top;spacingLeft=4;spacingRight=4;overflow=hidden;rotatable=0;points=[[0,0.5],[1,0.5]];portConstraint=eastwest;fontColor=#1D3557;" vertex="1" parent="71">
                    <mxGeometry y="26" width="170" height="26" as="geometry"/>
                </mxCell>
                <mxCell id="73" value="+ key: K" style="text;strokeColor=none;fillColor=none;align=center;verticalAlign=top;spacingLeft=4;spacingRight=4;overflow=hidden;rotatable=0;points=[[0,0.5],[1,0.5]];portConstraint=eastwest;fontColor=#1D3557;" vertex="1" parent="71">
                    <mxGeometry y="52" width="170" height="26" as="geometry"/>
                </mxCell>
                <object label="+ value: V" dafasdf="asdfasdf" id="74">
                    <mxCell style="text;strokeColor=none;fillColor=none;align=center;verticalAlign=top;spacingLeft=4;spacingRight=4;overflow=hidden;rotatable=0;points=[[0,0.5],[1,0.5]];portConstraint=eastwest;fontColor=#1D3557;" vertex="1" parent="71">
                        <mxGeometry y="78" width="170" height="26" as="geometry"/>
                    </mxCell>
                </object>
                <mxCell id="75" value="&lt;span style=&quot;text-align: left&quot;&gt;+ before: Entry&amp;lt;K,V&amp;gt;&lt;/span&gt;" style="shape=process;whiteSpace=wrap;html=1;backgroundOutline=1;rounded=0;sketch=0;strokeColor=#82b366;fillColor=#d5e8d4;" vertex="1" parent="71">
                    <mxGeometry y="104" width="170" height="26" as="geometry"/>
                </mxCell>
                <mxCell id="76" value="&lt;span style=&quot;text-align: left&quot;&gt;+ after: Entry&amp;lt;K,V&amp;gt;&lt;/span&gt;" style="shape=process;whiteSpace=wrap;html=1;backgroundOutline=1;rounded=0;sketch=0;strokeColor=#82b366;fillColor=#d5e8d4;" vertex="1" parent="71">
                    <mxGeometry y="130" width="170" height="26" as="geometry"/>
                </mxCell>
                <mxCell id="77" value="&lt;span style=&quot;text-align: left&quot;&gt;+ next: Entry&amp;lt;K,V&amp;gt;&lt;/span&gt;" style="shape=process;whiteSpace=wrap;html=1;backgroundOutline=1;rounded=0;sketch=0;strokeColor=#457B9D;fillColor=#A8DADC;fontColor=#1D3557;" vertex="1" parent="71">
                    <mxGeometry y="156" width="170" height="26" as="geometry"/>
                </mxCell>
                <mxCell id="80" style="edgeStyle=orthogonalEdgeStyle;curved=0;rounded=1;sketch=0;orthogonalLoop=1;jettySize=auto;html=1;exitX=1;exitY=0.5;exitDx=0;exitDy=0;entryX=0.5;entryY=0;entryDx=0;entryDy=0;fontColor=#1D3557;strokeWidth=4;fillColor=#dae8fc;strokeColor=#6c8ebf;" edge="1" parent="1" source="38" target="71">
                    <mxGeometry relative="1" as="geometry"/>
                </mxCell>
                <object label="Entry&lt;K,V&gt;" next="" id="81">
                    <mxCell style="swimlane;fontStyle=0;childLayout=stackLayout;horizontal=1;startSize=26;fillColor=#A8DADC;horizontalStack=0;resizeParent=1;resizeParentMax=0;resizeLast=0;collapsible=1;marginBottom=0;strokeColor=#457B9D;fontColor=#1D3557;flipH=1;" vertex="1" parent="1">
                        <mxGeometry x="260" y="300" width="170" height="182" as="geometry"/>
                    </mxCell>
                </object>
                <mxCell id="82" value="+ hash: int" style="text;strokeColor=none;fillColor=none;align=center;verticalAlign=top;spacingLeft=4;spacingRight=4;overflow=hidden;rotatable=0;points=[[0,0.5],[1,0.5]];portConstraint=eastwest;fontColor=#1D3557;" vertex="1" parent="81">
                    <mxGeometry y="26" width="170" height="26" as="geometry"/>
                </mxCell>
                <mxCell id="83" value="+ key: K" style="text;strokeColor=none;fillColor=none;align=center;verticalAlign=top;spacingLeft=4;spacingRight=4;overflow=hidden;rotatable=0;points=[[0,0.5],[1,0.5]];portConstraint=eastwest;fontColor=#1D3557;" vertex="1" parent="81">
                    <mxGeometry y="52" width="170" height="26" as="geometry"/>
                </mxCell>
                <object label="+ value: V" dafasdf="asdfasdf" id="84">
                    <mxCell style="text;strokeColor=none;fillColor=none;align=center;verticalAlign=top;spacingLeft=4;spacingRight=4;overflow=hidden;rotatable=0;points=[[0,0.5],[1,0.5]];portConstraint=eastwest;fontColor=#1D3557;" vertex="1" parent="81">
                        <mxGeometry y="78" width="170" height="26" as="geometry"/>
                    </mxCell>
                </object>
                <mxCell id="85" value="&lt;span style=&quot;text-align: left&quot;&gt;+ before: Entry&amp;lt;K,V&amp;gt;&lt;/span&gt;" style="shape=process;whiteSpace=wrap;html=1;backgroundOutline=1;rounded=0;sketch=0;strokeColor=#82b366;fillColor=#d5e8d4;" vertex="1" parent="81">
                    <mxGeometry y="104" width="170" height="26" as="geometry"/>
                </mxCell>
                <mxCell id="86" value="&lt;span style=&quot;text-align: left&quot;&gt;+ after: Entry&amp;lt;K,V&amp;gt;&lt;/span&gt;" style="shape=process;whiteSpace=wrap;html=1;backgroundOutline=1;rounded=0;sketch=0;strokeColor=#82b366;fillColor=#d5e8d4;" vertex="1" parent="81">
                    <mxGeometry y="130" width="170" height="26" as="geometry"/>
                </mxCell>
                <mxCell id="87" value="&lt;span style=&quot;text-align: left&quot;&gt;+ next: Entry&amp;lt;K,V&amp;gt;&lt;/span&gt;" style="shape=process;whiteSpace=wrap;html=1;backgroundOutline=1;rounded=0;sketch=0;strokeColor=#457B9D;fillColor=#A8DADC;fontColor=#1D3557;" vertex="1" parent="81">
                    <mxGeometry y="156" width="170" height="26" as="geometry"/>
                </mxCell>
                <mxCell id="88" style="edgeStyle=orthogonalEdgeStyle;curved=0;rounded=1;sketch=0;orthogonalLoop=1;jettySize=auto;html=1;exitX=0;exitY=0.5;exitDx=0;exitDy=0;fillColor=#d5e8d4;fontColor=#1D3557;strokeColor=#82b366;strokeWidth=4;" edge="1" parent="1" source="37" target="81">
                    <mxGeometry relative="1" as="geometry"/>
                </mxCell>
                <mxCell id="89" style="edgeStyle=orthogonalEdgeStyle;curved=0;rounded=1;sketch=0;orthogonalLoop=1;jettySize=auto;html=1;exitX=1;exitY=0.5;exitDx=0;exitDy=0;entryX=0;entryY=0.5;entryDx=0;entryDy=0;strokeColor=#d79b00;strokeWidth=1;fillColor=#ffe6cc;fontColor=#1D3557;" edge="1" parent="1" source="52" target="83">
                    <mxGeometry relative="1" as="geometry"/>
                </mxCell>
                <mxCell id="91" style="edgeStyle=orthogonalEdgeStyle;curved=0;rounded=1;sketch=0;orthogonalLoop=1;jettySize=auto;html=1;exitX=1;exitY=0.5;exitDx=0;exitDy=0;entryX=0.5;entryY=1;entryDx=0;entryDy=0;strokeColor=#82b366;strokeWidth=4;fillColor=#d5e8d4;fontColor=#1D3557;" edge="1" parent="1" source="85" target="38">
                    <mxGeometry relative="1" as="geometry">
                        <Array as="points">
                            <mxPoint x="470" y="417"/>
                            <mxPoint x="470" y="240"/>
                            <mxPoint x="345" y="240"/>
                        </Array>
                    </mxGeometry>
                </mxCell>
                <object label="Entry&lt;K,V&gt;" next="" id="93">
                    <mxCell style="swimlane;fontStyle=0;childLayout=stackLayout;horizontal=1;startSize=26;fillColor=#A8DADC;horizontalStack=0;resizeParent=1;resizeParentMax=0;resizeLast=0;collapsible=1;marginBottom=0;strokeColor=#457B9D;fontColor=#1D3557;flipH=1;" vertex="1" parent="1">
                        <mxGeometry x="260" y="550" width="170" height="182" as="geometry"/>
                    </mxCell>
                </object>
                <mxCell id="94" value="+ hash: int" style="text;strokeColor=none;fillColor=none;align=center;verticalAlign=top;spacingLeft=4;spacingRight=4;overflow=hidden;rotatable=0;points=[[0,0.5],[1,0.5]];portConstraint=eastwest;fontColor=#1D3557;" vertex="1" parent="93">
                    <mxGeometry y="26" width="170" height="26" as="geometry"/>
                </mxCell>
                <mxCell id="95" value="+ key: K" style="text;strokeColor=none;fillColor=none;align=center;verticalAlign=top;spacingLeft=4;spacingRight=4;overflow=hidden;rotatable=0;points=[[0,0.5],[1,0.5]];portConstraint=eastwest;fontColor=#1D3557;" vertex="1" parent="93">
                    <mxGeometry y="52" width="170" height="26" as="geometry"/>
                </mxCell>
                <object label="+ value: V" dafasdf="asdfasdf" id="96">
                    <mxCell style="text;strokeColor=none;fillColor=none;align=center;verticalAlign=top;spacingLeft=4;spacingRight=4;overflow=hidden;rotatable=0;points=[[0,0.5],[1,0.5]];portConstraint=eastwest;fontColor=#1D3557;" vertex="1" parent="93">
                        <mxGeometry y="78" width="170" height="26" as="geometry"/>
                    </mxCell>
                </object>
                <mxCell id="97" value="&lt;span style=&quot;text-align: left&quot;&gt;+ before: Entry&amp;lt;K,V&amp;gt;&lt;/span&gt;" style="shape=process;whiteSpace=wrap;html=1;backgroundOutline=1;rounded=0;sketch=0;strokeColor=#82b366;fillColor=#d5e8d4;" vertex="1" parent="93">
                    <mxGeometry y="104" width="170" height="26" as="geometry"/>
                </mxCell>
                <mxCell id="98" value="&lt;span style=&quot;text-align: left&quot;&gt;+ after: Entry&amp;lt;K,V&amp;gt;&lt;/span&gt;" style="shape=process;whiteSpace=wrap;html=1;backgroundOutline=1;rounded=0;sketch=0;strokeColor=#82b366;fillColor=#d5e8d4;" vertex="1" parent="93">
                    <mxGeometry y="130" width="170" height="26" as="geometry"/>
                </mxCell>
                <mxCell id="99" value="&lt;span style=&quot;text-align: left&quot;&gt;+ next: Entry&amp;lt;K,V&amp;gt;&lt;/span&gt;" style="shape=process;whiteSpace=wrap;html=1;backgroundOutline=1;rounded=0;sketch=0;strokeColor=#457B9D;fillColor=#A8DADC;fontColor=#1D3557;" vertex="1" parent="93">
                    <mxGeometry y="156" width="170" height="26" as="geometry"/>
                </mxCell>
                <mxCell id="100" style="edgeStyle=orthogonalEdgeStyle;curved=0;rounded=1;sketch=0;orthogonalLoop=1;jettySize=auto;html=1;exitX=0;exitY=0.5;exitDx=0;exitDy=0;entryX=0.5;entryY=0;entryDx=0;entryDy=0;strokeColor=#82b366;strokeWidth=4;fillColor=#d5e8d4;fontColor=#1D3557;" edge="1" parent="1" source="86" target="93">
                    <mxGeometry relative="1" as="geometry">
                        <Array as="points">
                            <mxPoint x="240" y="443"/>
                            <mxPoint x="240" y="520"/>
                            <mxPoint x="345" y="520"/>
                        </Array>
                    </mxGeometry>
                </mxCell>
                <mxCell id="101" style="edgeStyle=orthogonalEdgeStyle;curved=0;rounded=1;sketch=0;orthogonalLoop=1;jettySize=auto;html=1;exitX=1;exitY=0.5;exitDx=0;exitDy=0;entryX=0.5;entryY=1;entryDx=0;entryDy=0;strokeColor=#82b366;strokeWidth=4;fillColor=#d5e8d4;fontColor=#1D3557;" edge="1" parent="1" source="97" target="81">
                    <mxGeometry relative="1" as="geometry">
                        <Array as="points">
                            <mxPoint x="450" y="667"/>
                            <mxPoint x="450" y="510"/>
                            <mxPoint x="345" y="510"/>
                        </Array>
                    </mxGeometry>
                </mxCell>
                <mxCell id="102" style="edgeStyle=orthogonalEdgeStyle;curved=0;rounded=1;sketch=0;orthogonalLoop=1;jettySize=auto;html=1;exitX=1;exitY=0.5;exitDx=0;exitDy=0;entryX=0;entryY=0.5;entryDx=0;entryDy=0;strokeColor=#FFB366;strokeWidth=1;fillColor=#A8DADC;fontColor=#1D3557;" edge="1" parent="1" source="60" target="95">
                    <mxGeometry relative="1" as="geometry"/>
                </mxCell>
                <mxCell id="103" style="edgeStyle=orthogonalEdgeStyle;curved=0;rounded=1;sketch=0;orthogonalLoop=1;jettySize=auto;html=1;exitX=1;exitY=0.5;exitDx=0;exitDy=0;strokeColor=#82b366;strokeWidth=4;fillColor=#d5e8d4;fontColor=#1D3557;entryX=1;entryY=0.5;entryDx=0;entryDy=0;" edge="1" parent="1" source="98" target="73">
                    <mxGeometry relative="1" as="geometry">
                        <Array as="points">
                            <mxPoint x="780" y="693"/>
                            <mxPoint x="780" y="95"/>
                        </Array>
                    </mxGeometry>
                </mxCell>
                <mxCell id="104" style="edgeStyle=orthogonalEdgeStyle;curved=0;rounded=1;sketch=0;orthogonalLoop=1;jettySize=auto;html=1;exitX=0;exitY=0.5;exitDx=0;exitDy=0;entryX=1;entryY=0.5;entryDx=0;entryDy=0;strokeColor=#82b366;strokeWidth=4;fillColor=#d5e8d4;fontColor=#1D3557;" edge="1" parent="1" source="75" target="95">
                    <mxGeometry relative="1" as="geometry">
                        <Array as="points">
                            <mxPoint x="520" y="147"/>
                            <mxPoint x="520" y="615"/>
                        </Array>
                    </mxGeometry>
                </mxCell>
                <mxCell id="106" value="Text" style="text;html=1;strokeColor=none;fillColor=none;align=center;verticalAlign=middle;whiteSpace=wrap;rounded=0;sketch=0;fontColor=#1D3557;" vertex="1" parent="1">
                    <mxGeometry x="530" y="300" width="40" height="20" as="geometry"/>
                </mxCell>
                <mxCell id="107" value="Hash碰撞，局部退化成链表" style="text;html=1;strokeColor=none;fillColor=none;align=center;verticalAlign=middle;whiteSpace=wrap;rounded=0;sketch=0;fontColor=#1D3557;fontSize=17;" vertex="1" parent="1">
                    <mxGeometry x="787" y="30" width="213" height="60" as="geometry"/>
                </mxCell>
            </root>
        </mxGraphModel>
    </diagram>
</mxfile>